<svg width="24" height="24" viewBox="0 0 24 24" fill="none" xmlns="http://www.w3.org/2000/svg" aria-hidden="true">
  <defs>
    <linearGradient id="g1" x1="0" y1="0" x2="24" y2="24" gradientUnits="userSpaceOnUse">
      <stop stop-color="#22c55e"/>
      <stop offset="0.5" stop-color="#3b82f6"/>
      <stop offset="1" stop-color="#06b6d4"/>
    </linearGradient>
  </defs>
  <!-- Clipboard with pin/plus to suggest reporting an issue -->
  <path d="M9 3h6a2 2 0 012 2v1h1a2 2 0 012 2v9a2 2 0 01-2 2h-1v1a2 2 0 01-2 2H9a2 2 0 01-2-2v-1H6a2 2 0 01-2-2V8a2 2 0 012-2h1V5a2 2 0 012-2z" fill="url(#g1)" opacity="0.12"/>
  <rect x="7" y="4" width="10" height="3" rx="1.5" fill="url(#g1)" opacity="0.2"/>
  <rect x="4" y="7" width="16" height="12" rx="2" stroke="url(#g1)" stroke-width="1.5" fill="none"/>
  <path d="M12 10v6m-3-3h6" stroke="url(#g1)" stroke-width="1.5" stroke-linecap="round"/>
  <circle cx="12" cy="9" r="0.75" fill="url(#g1)"/>
</svg>
